{
  "accessors": [
    {
      "bufferView": 2,
      "componentType": 5126,
      "count": 1800,
      "max": [
        1.0380220413208008,
        0.449194997549057,
        0.47260698676109314
      ],
      "min": [
        -1.3882269859313965,
        -10.178979873657227,
        -0.03466999903321266
      ],
      "type": "VEC3"
    },
    {
      "bufferView": 2,
      "byteOffset": 21600,
      "componentType": 5126,
      "count": 1800,
      "max": [
        1.0,
        0.9999578595161438,
        1.0
      ],
      "min": [
        -1.0,
        -0.9994037747383118,
        -0.9961501359939575
      ],
      "type": "VEC3"
    },
    {
      "bufferView": 3,
      "componentType": 5126,
      "count": 1800,
      "max": [
        0.9999997615814209,
        0.9951848983764648,
        0.9999996423721313,
        1.0
      ],
      "min": [
        -0.9951832294464111,
        -0.9951744079589844,
        -0.9999982714653015,
        -1.0
      ],
      "type": "VEC4"
    },
    {
      "bufferView": 1,
      "componentType": 5126,
      "count": 1800,
      "max": [
        0.9900190234184265,
        0.9992150068283081
      ],
      "min": [
        0.0013160000089555979,
        0.0007849999819882214
      ],
      "type": "VEC2"
    },
    {
      "bufferView": 0,
      "componentType": 5125,
      "count": 2943,
      "type": "SCALAR"
    },
    {
      "bufferView": 2,
      "byteOffset": 43200,
      "componentType": 5126,
      "count": 2078,
      "max": [
        0.4697459936141968,
        0.45387399196624756,
        0.6718170046806335
      ],
      "min": [
        -1.3755160570144653,
        -4.529366970062256,
        -0.03466999903321266
      ],
      "type": "VEC3"
    },
    {
      "bufferView": 2,
      "byteOffset": 68136,
      "componentType": 5126,
      "count": 2078,
      "max": [
        1.0,
        1.0,
        1.0
      ],
      "min": [
        -1.0,
        -1.0,
        -1.0
      ],
      "type": "VEC3"
    },
    {
      "bufferView": 3,
      "byteOffset": 28800,
      "componentType": 5126,
      "count": 2078,
      "max": [
        1.0,
        1.0,
        1.0,
        1.0
      ],
      "min": [
        -1.0,
        -0.999997615814209,
        -0.9999988675117493,
        1.0
      ],
      "type": "VEC4"
    },
    {
      "bufferView": 1,
      "byteOffset": 14400,
      "componentType": 5126,
      "count": 2078,
      "max": [
        0.9986839890480042,
        0.590116024017334
      ],
      "min": [
        0.6196619868278503,
        0.0007849999819882214
      ],
      "type": "VEC2"
    },
    {
      "bufferView": 0,
      "byteOffset": 11772,
      "componentType": 5125,
      "count": 3492,
      "type": "SCALAR"
    },
    {
      "bufferView": 2,
      "byteOffset": 93072,
      "componentType": 5126,
      "count": 294,
      "max": [
        0.026669999584555626,
        -3.012294054031372,
        0.29180100560188293
      ],
      "min": [
        -0.6994900107383728,
        -12.601664543151855,
        0.2815130054950714
      ],
      "type": "VEC3"
    },
    {
      "bufferView": 2,
      "byteOffset": 96600,
      "componentType": 5126,
      "count": 294,
      "max": [
        0.9950843453407288,
        1.0,
        1.0
      ],
      "min": [
        -1.0,
        -0.9952854514122009,
        -1.0
      ],
      "type": "VEC3"
    },
    {
      "bufferView": 3,
      "byteOffset": 62048,
      "componentType": 5126,
      "count": 294,
      "max": [
        0.9999992251396179,
        0.01302350964397192,
        0.9999988675117493,
        1.0
      ],
      "min": [
        -1.0,
        -0.9114223718643188,
        -1.0,
        1.0
      ],
      "type": "VEC4"
    },
    {
      "bufferView": 1,
      "byteOffset": 31024,
      "componentType": 5126,
      "count": 294,
      "max": [
        0.9990900158882141,
        0.885670006275177
      ],
      "min": [
        0.43956199288368225,
        0.00092299998505041
      ],
      "type": "VEC2"
    },
    {
      "bufferView": 0,
      "byteOffset": 25740,
      "componentType": 5125,
      "count": 564,
      "type": "SCALAR"
    },
    {
      "bufferView": 2,
      "byteOffset": 100128,
      "componentType": 5126,
      "count": 2694,
      "max": [
        0.04101400077342987,
        -1.0063999891281128,
        0.38121500611305237
      ],
      "min": [
        -0.7139639854431152,
        -10.729555130004883,
        0.22680599987506866
      ],
      "type": "VEC3"
    },
    {
      "bufferView": 2,
      "byteOffset": 132456,
      "componentType": 5126,
      "count": 2694,
      "max": [
        1.0,
        1.0,
        1.0
      ],
      "min": [
        -1.0,
        -1.0,
        -0.9994328618049622
      ],
      "type": "VEC3"
    },
    {
      "bufferView": 3,
      "byteOffset": 66752,
      "componentType": 5126,
      "count": 2694,
      "max": [
        1.0,
        0.9999781847000122,
        1.0,
        1.0
      ],
      "min": [
        -1.0,
        -0.99997878074646,
        -1.0,
        1.0
      ],
      "type": "VEC4"
    },
    {
      "bufferView": 1,
      "byteOffset": 33376,
      "componentType": 5126,
      "count": 2694,
      "max": [
        0.9963589906692505,
        0.9575799703598022
      ],
      "min": [
        0.30126500129699707,
        0.00092299998505041
      ],
      "type": "VEC2"
    },
    {
      "bufferView": 0,
      "byteOffset": 27996,
      "componentType": 5125,
      "count": 5340,
      "type": "SCALAR"
    }
  ],
  "asset": {
    "extras": {
      "author": "Paule Gennadievich (https://sketchfab.com/PauleMenson)",
      "license": "CC-BY-4.0 (http://creativecommons.org/licenses/by/4.0/)",
      "source": "https://sketchfab.com/3d-models/stationery-knife-20f6711664794fcabd9ac0e20ced000c",
      "title": "Stationery knife"
    },
    "generator": "Sketchfab-12.63.0",
    "version": "2.0"
  },
  "bufferViews": [
    {
      "buffer": 0,
      "byteLength": 49356,
      "name": "floatBufferViews",
      "target": 34963
    },
    {
      "buffer": 0,
      "byteLength": 54928,
      "byteOffset": 49356,
      "byteStride": 8,
      "name": "floatBufferViews",
      "target": 34962
    },
    {
      "buffer": 0,
      "byteLength": 164784,
      "byteOffset": 104284,
      "byteStride": 12,
      "name": "floatBufferViews",
      "target": 34962
    },
    {
      "buffer": 0,
      "byteLength": 109856,
      "byteOffset": 269068,
      "byteStride": 16,
      "name": "floatBufferViews",
      "target": 34962
    }
  ],
  "buffers": [
    {
      "byteLength": 378924,
      "uri": "scene.bin"
    }
  ],
  "images": [
    {
      "uri": "textures/metall_baseColor.jpeg"
    },
    {
      "uri": "textures/metall_metallicRoughness.png"
    },
    {
      "uri": "textures/metall_normal.png"
    },
    {
      "uri": "textures/lezvie_baseColor.jpeg"
    },
    {
      "uri": "textures/lezvie_metallicRoughness.png"
    },
    {
      "uri": "textures/lezvie_normal.png"
    },
    {
      "uri": "textures/korpus_baseColor.jpeg"
    },
    {
      "uri": "textures/korpus_metallicRoughness.png"
    },
    {
      "uri": "textures/korpus_normal.png"
    },
    {
      "uri": "textures/plastik_baseColor.jpeg"
    },
    {
      "uri": "textures/plastik_metallicRoughness.png"
    },
    {
      "uri": "textures/plastik_normal.png"
    }
  ],
  "materials": [
    {
      "doubleSided": true,
      "name": "metall",
      "normalTexture": {
        "index": 2
      },
      "occlusionTexture": {
        "index": 1
      },
      "pbrMetallicRoughness": {
        "baseColorTexture": {
          "index": 0
        },
        "metallicRoughnessTexture": {
          "index": 1
        }
      }
    },
    {
      "doubleSided": true,
      "name": "lezvie",
      "normalTexture": {
        "index": 5
      },
      "occlusionTexture": {
        "index": 4
      },
      "pbrMetallicRoughness": {
        "baseColorTexture": {
          "index": 3
        },
        "metallicRoughnessTexture": {
          "index": 4
        }
      }
    },
    {
      "doubleSided": true,
      "name": "korpus",
      "normalTexture": {
        "index": 8
      },
      "occlusionTexture": {
        "index": 7
      },
      "pbrMetallicRoughness": {
        "baseColorTexture": {
          "index": 6
        },
        "metallicRoughnessTexture": {
          "index": 7
        }
      }
    },
    {
      "doubleSided": true,
      "name": "plastik",
      "normalTexture": {
        "index": 11
      },
      "occlusionTexture": {
        "index": 10
      },
      "pbrMetallicRoughness": {
        "baseColorTexture": {
          "index": 9
        },
        "metallicRoughnessTexture": {
          "index": 10
        }
      }
    }
  ],
  "meshes": [
    {
      "name": "defaultMaterial",
      "primitives": [
        {
          "attributes": {
            "NORMAL": 1,
            "POSITION": 0,
            "TANGENT": 2,
            "TEXCOORD_0": 3
          },
          "indices": 4,
          "material": 2,
          "mode": 4
        }
      ]
    },
    {
      "name": "defaultMaterial",
      "primitives": [
        {
          "attributes": {
            "NORMAL": 6,
            "POSITION": 5,
            "TANGENT": 7,
            "TEXCOORD_0": 8
          },
          "indices": 9,
          "material": 3,
          "mode": 4
        }
      ]
    },
    {
      "name": "defaultMaterial",
      "primitives": [
        {
          "attributes": {
            "NORMAL": 11,
            "POSITION": 10,
            "TANGENT": 12,
            "TEXCOORD_0": 13
          },
          "indices": 14,
          "material": 1,
          "mode": 4
        }
      ]
    },
    {
      "name": "defaultMaterial",
      "primitives": [
        {
          "attributes": {
            "NORMAL": 16,
            "POSITION": 15,
            "TANGENT": 17,
            "TEXCOORD_0": 18
          },
          "indices": 19,
          "material": 0,
          "mode": 4
        }
      ]
    }
  ],
  "nodes": [
    {
      "children": [
        1
      ],
      "matrix": [
        1.0,
        0.0,
        0.0,
        0.0,
        0.0,
        2.220446049250313e-16,
        -1.0,
        0.0,
        0.0,
        1.0,
        2.220446049250313e-16,
        0.0,
        0.0,
        0.0,
        0.0,
        1.0
      ],
      "name": "Sketchfab_model"
    },
    {
      "children": [
        2,
        5,
        7
      ],
      "matrix": [
        1.0,
        0.0,
        0.0,
        0.0,
        0.0,
        -4.371139006309477e-08,
        0.999999999999999,
        0.0,
        0.0,
        -0.999999999999999,
        -4.371139006309477e-08,
        0.0,
        0.0,
        0.0,
        0.0,
        1.0
      ],
      "name": "Collada visual scene group"
    },
    {
      "children": [
        3,
        4
      ],
      "matrix": [
        100.0,
        0.0,
        0.0,
        0.0,
        0.0,
        -1.6e-05,
        -100.0,
        0.0,
        0.0,
        100.0,
        -1.6e-05,
        0.0,
        38.822754,
        44.240402,
        -561.690735,
        1.0
      ],
      "name": "korpus"
    },
    {
      "mesh": 0,
      "name": "defaultMaterial"
    },
    {
      "mesh": 1,
      "name": "defaultMaterial"
    },
    {
      "children": [
        6
      ],
      "matrix": [
        100.0,
        0.0,
        0.0,
        0.0,
        0.0,
        -1.6e-05,
        -100.0,
        0.0,
        0.0,
        100.0,
        -1.6e-05,
        0.0,
        38.822754,
        45.602547,
        -561.690735,
        1.0
      ],
      "name": "Lezvie"
    },
    {
      "mesh": 2,
      "name": "defaultMaterial"
    },
    {
      "children": [
        8
      ],
      "matrix": [
        100.0,
        0.0,
        0.0,
        0.0,
        0.0,
        -1.6e-05,
        -100.0,
        0.0,
        0.0,
        100.0,
        -1.6e-05,
        0.0,
        38.822754,
        44.240402,
        -561.690735,
        1.0
      ],
      "name": "metall"
    },
    {
      "mesh": 3,
      "name": "defaultMaterial"
    }
  ],
  "samplers": [
    {
      "magFilter": 9729,
      "minFilter": 9987,
      "wrapS": 10497,
      "wrapT": 10497
    }
  ],
  "scene": 0,
  "scenes": [
    {
      "name": "Sketchfab_Scene",
      "nodes": [
        0
      ]
    }
  ],
  "textures": [
    {
      "sampler": 0,
      "source": 0
    },
    {
      "sampler": 0,
      "source": 1
    },
    {
      "sampler": 0,
      "source": 2
    },
    {
      "sampler": 0,
      "source": 3
    },
    {
      "sampler": 0,
      "source": 4
    },
    {
      "sampler": 0,
      "source": 5
    },
    {
      "sampler": 0,
      "source": 6
    },
    {
      "sampler": 0,
      "source": 7
    },
    {
      "sampler": 0,
      "source": 8
    },
    {
      "sampler": 0,
      "source": 9
    },
    {
      "sampler": 0,
      "source": 10
    },
    {
      "sampler": 0,
      "source": 11
    }
  ]
}
